<svg width="84" height="71" viewBox="0 0 84 71" fill="none" xmlns="http://www.w3.org/2000/svg">
<path d="M42.7367 2L48.001 13.4129L60.4821 14.8928L51.2545 23.4262L53.704 35.7538L42.7367 29.6147L31.7695 35.7538L34.2189 23.4262L24.9913 14.8928L37.4725 13.4129L42.7367 2Z" stroke="#967844" stroke-width="3" stroke-linejoin="round"/>
<path d="M64.3414 32.934L69.6056 44.347L82.0868 45.8268L72.8591 54.3602L75.3086 66.6878L64.3414 60.5488L53.3741 66.6878L55.8236 54.3602L46.596 45.8268L59.0771 44.347L64.3414 32.934Z" stroke="#967844" stroke-width="3" stroke-linejoin="round"/>
<path d="M19.6586 32.934L24.9229 44.347L37.404 45.8268L28.1764 54.3602L30.6259 66.6878L19.6586 60.5488L8.69136 66.6878L11.1408 54.3602L1.91322 45.8268L14.3943 44.347L19.6586 32.934Z" stroke="#967844" stroke-width="3" stroke-linejoin="round"/>
</svg>
