<svg width="68" height="68" viewBox="0 0 68 68" fill="none" xmlns="http://www.w3.org/2000/svg">
<path d="M2 34.2483C2 52.0584 16.438 66.4966 34.2483 66.4966C52.0584 66.4966 66.4966 52.0584 66.4966 34.2483C66.4966 16.438 52.0584 2 34.2483 2C16.438 2 2 16.438 2 34.2483Z" stroke="#967844" stroke-width="3" stroke-linecap="round" stroke-linejoin="round"/>
<path d="M37.4731 2.15906C37.4731 2.15906 47.1476 14.8991 47.1476 34.248C47.1476 53.5969 37.4731 66.3373 37.4731 66.3373" stroke="#967844" stroke-width="3" stroke-linecap="round" stroke-linejoin="round"/>
<path d="M31.0236 66.3373C31.0236 66.3373 21.3491 53.5969 21.3491 34.248C21.3491 14.8991 31.0236 2.15906 31.0236 2.15906" stroke="#967844" stroke-width="3" stroke-linecap="round" stroke-linejoin="round"/>
<path d="M4.03052 45.5352H64.4663" stroke="#967844" stroke-width="3" stroke-linecap="round" stroke-linejoin="round"/>
<path d="M4.03052 22.9614H64.4663" stroke="#967844" stroke-width="3" stroke-linecap="round" stroke-linejoin="round"/>
</svg>
