<svg width="67" height="70" viewBox="0 0 67 70" fill="none" xmlns="http://www.w3.org/2000/svg">
<path d="M29.36 17.4C29.36 20.184 28.976 22.648 28.208 24.792C27.44 26.904 26.4 28.664 25.088 30.072C23.776 31.48 22.256 32.552 20.528 33.288C18.8 33.992 16.976 34.344 15.056 34.344C13.072 34.344 11.2 33.992 9.44 33.288C7.712 32.552 6.208 31.48 4.928 30.072C3.648 28.664 2.64 26.904 1.904 24.792C1.168 22.648 0.8 20.184 0.8 17.4C0.8 14.584 1.168 12.104 1.904 9.96C2.64 7.816 3.648 6.04 4.928 4.632C6.208 3.192 7.712 2.12 9.44 1.41599C11.2 0.679995 13.072 0.311995 15.056 0.311995C17.04 0.311995 18.896 0.679995 20.624 1.41599C22.352 2.12 23.856 3.192 25.136 4.632C26.448 6.04 27.472 7.816 28.208 9.96C28.976 12.104 29.36 14.584 29.36 17.4ZM25.712 17.4C25.712 14.936 25.424 12.824 24.848 11.064C24.304 9.304 23.536 7.864 22.544 6.744C21.584 5.592 20.448 4.76 19.136 4.248C17.856 3.704 16.496 3.432 15.056 3.432C13.616 3.432 12.256 3.704 10.976 4.248C9.696 4.76 8.576 5.592 7.616 6.744C6.656 7.864 5.888 9.304 5.312 11.064C4.768 12.824 4.496 14.936 4.496 17.4C4.496 19.864 4.768 21.976 5.312 23.736C5.888 25.464 6.656 26.888 7.616 28.008C8.576 29.128 9.696 29.96 10.976 30.504C12.256 31.016 13.616 31.272 15.056 31.272C16.496 31.272 17.856 31.016 19.136 30.504C20.448 29.96 21.584 29.128 22.544 28.008C23.536 26.888 24.304 25.464 24.848 23.736C25.424 21.976 25.712 19.864 25.712 17.4ZM55.136 1.944C55.328 1.688 55.552 1.48 55.808 1.32C56.096 1.16 56.464 1.08 56.912 1.08H60.128L11.36 68.136C10.944 68.712 10.384 69 9.68 69H6.416L55.136 1.944ZM66.032 52.872C66.032 55.656 65.648 58.12 64.88 60.264C64.112 62.376 63.072 64.136 61.76 65.544C60.48 66.952 58.976 68.024 57.248 68.76C55.52 69.464 53.696 69.816 51.776 69.816C49.792 69.816 47.92 69.464 46.16 68.76C44.432 68.024 42.928 66.952 41.648 65.544C40.368 64.136 39.36 62.376 38.624 60.264C37.888 58.12 37.52 55.656 37.52 52.872C37.52 50.056 37.888 47.576 38.624 45.432C39.36 43.288 40.368 41.512 41.648 40.104C42.928 38.664 44.432 37.592 46.16 36.888C47.92 36.152 49.792 35.784 51.776 35.784C53.76 35.784 55.616 36.152 57.344 36.888C59.072 37.592 60.576 38.664 61.856 40.104C63.168 41.512 64.192 43.288 64.928 45.432C65.664 47.576 66.032 50.056 66.032 52.872ZM62.384 52.872C62.384 50.408 62.096 48.296 61.52 46.536C60.976 44.744 60.224 43.288 59.264 42.168C58.304 41.016 57.168 40.184 55.856 39.672C54.576 39.128 53.216 38.856 51.776 38.856C50.336 38.856 48.96 39.128 47.648 39.672C46.368 40.184 45.248 41.016 44.288 42.168C43.328 43.288 42.56 44.744 41.984 46.536C41.44 48.296 41.168 50.408 41.168 52.872C41.168 55.336 41.44 57.448 41.984 59.208C42.56 60.936 43.328 62.36 44.288 63.48C45.248 64.6 46.368 65.416 47.648 65.928C48.96 66.44 50.336 66.696 51.776 66.696C53.216 66.696 54.576 66.44 55.856 65.928C57.168 65.416 58.304 64.6 59.264 63.48C60.224 62.36 60.976 60.936 61.52 59.208C62.096 57.448 62.384 55.336 62.384 52.872Z" fill="#967844"/>
</svg>
