<svg width="68" height="68" viewBox="0 0 68 68" fill="none" xmlns="http://www.w3.org/2000/svg">
<path d="M49.9999 35.6C50.8834 35.6 51.5999 34.8835 51.5999 34C51.5999 33.1165 50.8834 32.4 49.9999 32.4C49.1164 32.4 48.3999 33.1165 48.3999 34C48.3999 34.8835 49.1164 35.6 49.9999 35.6Z" fill="#967844" stroke="#967844" stroke-width="3" stroke-linecap="round" stroke-linejoin="round"/>
<path d="M34.0001 35.6C34.8837 35.6 35.6001 34.8835 35.6001 34C35.6001 33.1165 34.8837 32.4 34.0001 32.4C33.1166 32.4 32.4001 33.1165 32.4001 34C32.4001 34.8835 33.1166 35.6 34.0001 35.6Z" fill="#967844" stroke="#967844" stroke-width="3" stroke-linecap="round" stroke-linejoin="round"/>
<path d="M18.0001 35.6C18.8838 35.6 19.6001 34.8835 19.6001 34C19.6001 33.1165 18.8838 32.4 18.0001 32.4C17.1165 32.4 16.4001 33.1165 16.4001 34C16.4001 34.8835 17.1165 35.6 18.0001 35.6Z" fill="#967844" stroke="#967844" stroke-width="3" stroke-linecap="round" stroke-linejoin="round"/>
<path d="M34 66C51.673 66 66 51.673 66 34C66 16.3269 51.673 2 34 2C16.3269 2 2 16.3269 2 34C2 39.8285 3.5583 45.2931 6.28102 50L3.6 64.4L18 61.719C22.7068 64.4416 28.1715 66 34 66Z" stroke="#967844" stroke-width="3" stroke-linecap="round" stroke-linejoin="round"/>
</svg>
