<svg width="18" height="18" viewBox="0 0 18 18" fill="none" xmlns="http://www.w3.org/2000/svg">
<path d="M12.3782 5.07423H13.9223L11.6332 1.21556C11.4488 0.902892 11.0402 0.796299 10.722 0.98106C10.4037 1.16227 10.2952 1.56377 10.4833 1.87644L12.3782 5.07423Z" fill="#AA9166"/>
<path d="M7.13847 1.87645C7.3229 1.56378 7.21803 1.16228 6.8998 0.981068C6.58158 0.79986 6.17294 0.9029 5.98852 1.21557L3.69946 5.07779H5.24358L7.13847 1.87645Z" fill="#AA9166"/>
<path fill-rule="evenodd" clip-rule="evenodd" d="M16.479 6.25745H1.13187C0.506268 6.25745 0 6.75488 0 7.36957V8.60249C0 9.21718 0.506268 9.71461 1.13187 9.71461H1.48626L2.57835 15.531C2.71577 16.2168 3.35222 16.7604 4.01398 16.7604H4.44793H7.29749H8.34619H8.69335H9.0405H10.0892H12.9388H13.3727C14.0345 16.7604 14.6709 16.2168 14.8083 15.531L15.9077 9.71106H16.4826C17.1082 9.71106 17.6145 9.21362 17.6145 8.59894V7.36601C17.6109 6.75488 17.1046 6.25745 16.479 6.25745ZM6.24879 12.0703V14.5788C6.24879 14.9377 5.95227 15.2077 5.60873 15.2077C5.24349 15.2077 4.96866 14.9163 4.96866 14.5788V13.5271V11.0612C4.96866 10.7024 5.26519 10.4323 5.60873 10.4323C5.97396 10.4323 6.24879 10.7237 6.24879 11.0612V12.0703ZM8.3028 14.5788V12.0703V11.0612C8.3028 10.7237 8.00627 10.4323 7.66273 10.4323C7.31919 10.4323 7.02266 10.7024 7.02266 11.0612V13.5271V14.5788C7.02266 14.9163 7.29749 15.2077 7.66273 15.2077C8.00627 15.2077 8.3028 14.9377 8.3028 14.5788ZM10.3676 13.5271V14.5788C10.3676 14.9163 10.0928 15.2077 9.72758 15.2077C9.38404 15.2077 9.08751 14.9377 9.08751 14.5788V12.0703V11.0612C9.08751 10.7237 9.38404 10.4323 9.72758 10.4323C10.0711 10.4323 10.3676 10.7024 10.3676 11.0612V13.5271ZM12.4216 14.5788V13.5271V11.0612C12.4216 10.7024 12.1251 10.4323 11.7816 10.4323C11.4163 10.4323 11.1415 10.7237 11.1415 11.0612V12.0703V14.5788C11.1415 14.9377 11.438 15.2077 11.7816 15.2077C12.1468 15.2077 12.4216 14.9163 12.4216 14.5788Z" fill="#AA9166"/>
</svg>
