<svg width="222" height="42" viewBox="0 0 222 42" fill="none" xmlns="http://www.w3.org/2000/svg">
<path d="M69.6924 32.2374C71.2165 32.2374 72.5923 32.9042 72.5923 34.6187C72.5923 35.4601 72.0737 36.1798 71.227 36.4655C72.2907 36.7778 72.8516 37.6932 72.8516 38.5717C72.8516 40.3709 71.2535 40.9159 69.6924 40.9159C68.4012 40.9159 67.2847 40.9159 65.9988 40.9159V32.2374H69.6924ZM66.8666 36.0792H69.7559C70.7984 36.0792 71.7298 35.6559 71.7298 34.6028C71.7298 33.4387 70.7614 33.0418 69.6977 33.0418H66.8719V36.0792H66.8666ZM66.8666 40.0957H69.6924C70.682 40.0957 71.9838 39.7835 71.9838 38.5611C71.9732 37.3599 70.7931 36.873 69.7506 36.873C68.7717 36.873 67.8562 36.873 66.8613 36.873V40.0957H66.8666Z" fill="#AA9166"/>
<path d="M86.6737 36.5978C86.6631 38.868 85.2237 41.0746 82.2868 41.0746C79.334 41.0746 77.884 38.868 77.884 36.5872C77.884 34.1424 79.4716 32.0892 82.2868 32.0892C85.2237 32.0998 86.6842 34.28 86.6737 36.5978ZM82.2815 40.2544C84.6469 40.2544 85.7899 38.4552 85.8005 36.5978C85.8005 34.6504 84.6469 32.9147 82.2815 32.9042C79.9531 32.9042 78.7254 34.5552 78.7466 36.5978C78.7731 38.4976 79.9161 40.2544 82.2815 40.2544Z" fill="#AA9166"/>
<path d="M99.0299 32.2374V37.5292C99.0299 39.8734 97.4953 41.0006 95.6062 41.0006C93.7223 41.0006 92.1348 39.8734 92.1348 37.5292V32.2374H93.0026V37.5292C93.0026 39.1802 94.1298 40.1962 95.6062 40.1962C96.9185 40.1962 98.1621 39.339 98.1621 37.5292V32.2374H99.0299Z" fill="#AA9166"/>
<path d="M107.11 33.0524H104.046V32.2322C106.502 32.2322 108.581 32.2322 111.037 32.2322V33.0524H107.973V40.9107H107.105V33.0524H107.11Z" fill="#AA9166"/>
<path d="M116.159 40.9107V32.2322H117.027V40.9107H116.159Z" fill="#AA9166"/>
<path d="M131.394 36.5502C131.394 37.5927 131.072 38.6563 130.426 39.4766L131.505 40.5296L130.913 41.1488L129.823 40.0798C129.129 40.6513 128.161 41.0112 126.997 41.0112C124.007 41.0112 122.573 38.8786 122.594 36.5132C122.605 34.2219 124.055 32.0999 126.997 32.0999C129.955 32.0999 131.394 34.2166 131.394 36.5502ZM123.457 36.5238C123.446 38.4341 124.621 40.1962 126.992 40.1962C129.357 40.1962 130.537 38.4235 130.511 36.5396C130.5 34.5658 129.373 32.9201 126.992 32.9201C124.811 32.9148 123.446 34.5552 123.457 36.5238Z" fill="#AA9166"/>
<path d="M143.761 32.2374V37.5292C143.761 39.8734 142.227 41.0006 140.337 41.0006C138.454 41.0006 136.866 39.8734 136.866 37.5292V32.2374H137.734V37.5292C137.734 39.1802 138.861 40.1962 140.337 40.1962C141.65 40.1962 142.893 39.339 142.893 37.5292V32.2374H143.761Z" fill="#AA9166"/>
<path d="M156.007 40.9107H149.783C149.783 38.0214 149.783 35.1215 149.783 32.2322H155.895V33.0524H150.651V36.164H155.657V36.9683H150.651V40.0904H156.007V40.9107Z" fill="#AA9166"/>
<path d="M23.8553 0.328089H28.1416V0.656179L27.9035 0.687929C27.6653 0.687929 27.4272 0.756722 27.1891 0.894308C26.6546 1.19065 26.2842 1.65632 26.0884 2.29133L22.0402 15.6795L21.1776 18.627L20.4315 21.0665H19.9552L14.9598 6.33953L14.6899 5.56693L13.8644 3.12214L10.1761 15.7959L9.37171 18.59L8.65732 21.0612H8.18106L1.90503 2.55592L1.75687 2.07966C1.37586 1.24886 0.793764 0.772597 0 0.656179V0.328089H5.08538L5.14359 0.624428H5.02717L2.02145 0.656179C2.81522 0.772597 3.39731 1.24886 3.77832 2.08495L3.86828 2.38129L3.92649 2.56121L8.95366 18.2989L9.10183 17.7909L9.93264 14.9651L14.3089 0H14.7534L15.616 2.49771L15.8541 3.24385L20.8495 18.1455L20.9078 17.8756L21.8021 14.9281L25.5222 2.28604C25.6598 1.83095 25.6227 1.44994 25.4058 1.14302C25.1888 0.836098 24.8501 0.682637 24.395 0.682637L23.8606 0.650887V0.328089H23.8553Z" fill="#AA9166"/>
<path d="M41.0801 0.682673C40.6832 0.70384 40.3604 0.867885 40.1117 1.17481C39.863 1.48173 39.7412 1.85215 39.7412 2.29137V18.6217C39.7412 19.0557 39.863 19.4314 40.1117 19.7383C40.3604 20.0452 40.6832 20.2093 41.0801 20.2304L41.3182 20.2622V20.5903H36.291V20.2622L36.5291 20.2304C36.926 20.2093 37.2488 20.0452 37.4975 19.7383C37.7462 19.4314 37.868 19.061 37.868 18.6217V2.29137C37.868 1.99503 37.8098 1.72515 37.688 1.48702C37.5716 1.24889 37.4129 1.06368 37.2118 0.920802C37.0107 0.783217 36.7831 0.70384 36.5291 0.682673L36.291 0.650923V0.328125H41.3182V0.656214L41.0801 0.682673Z" fill="#AA9166"/>
<path d="M63.2737 16.9866C63.4324 17.0448 63.5435 17.0977 63.6017 17.1348C63.48 17.9867 63.3054 19.0663 63.0673 20.3786L63.0355 20.585H50.0972V20.2569L50.3353 20.2252C50.7322 20.204 51.055 20.0399 51.3037 19.733C51.5524 19.4261 51.6741 19.0557 51.6741 18.6165V2.29137C51.6741 1.85744 51.5471 1.48173 51.3037 1.17481C51.055 0.867885 50.7322 0.70384 50.3353 0.682673L50.0972 0.650922V0.328125H55.1243V0.656214L55.0926 0.687965L54.8545 0.719715C54.4788 0.740882 54.1612 0.904927 53.9019 1.21185C53.6427 1.51877 53.5156 1.88919 53.5156 2.32841V19.0768C53.4945 19.3732 53.4045 19.6113 53.2458 19.7912C53.087 19.9711 52.9283 20.077 52.7695 20.1193L52.5314 20.1511H53.5156H59.4636C60.0774 20.1511 60.6913 19.95 61.3104 19.5425C61.9243 19.135 62.4005 18.6165 62.7392 17.9814L63.2737 16.9866Z" fill="#AA9166"/>
<path d="M78.3867 0.296387C81.4824 0.296387 84.0225 1.2542 86.0175 3.16452C88.0125 5.08014 89.0073 7.50377 89.0073 10.4354C89.0073 13.3723 88.1289 15.796 86.372 17.7063C84.6151 19.6219 82.3926 20.5797 79.6938 20.5797H70.9783V20.2516L71.2164 20.2199C71.6133 20.1987 71.9361 20.0347 72.1848 19.7277C72.4335 19.4208 72.5552 19.0504 72.5552 18.6112V2.29138C72.5552 1.85746 72.4282 1.48174 72.1848 1.17482C71.9361 0.867897 71.6133 0.703852 71.2164 0.682685L70.9783 0.650935V0.328137L78.3867 0.296387ZM79.6938 20.0505C81.8528 20.0505 83.6415 19.1456 85.0491 17.3306C86.4567 15.5155 87.1605 13.2083 87.1605 10.4142C87.1605 7.61489 86.335 5.31298 84.6892 3.4979C83.0435 1.68283 80.9427 0.777937 78.3814 0.777937H73.4442C73.5236 0.777937 73.6136 0.793812 73.7141 0.820271C73.8147 0.84673 73.9522 0.952565 74.1322 1.13249C74.3121 1.31241 74.4073 1.55053 74.4285 1.84687V20.0823L79.6938 20.0505Z" fill="#AA9166"/>
<path d="M109.889 17.3729H110.069C110.026 17.6904 109.947 18.2196 109.815 18.9657C109.688 19.7119 109.603 20.2093 109.561 20.4686H109.529L109.497 20.675H96.5852V20.3469L96.8233 20.3151C97.2202 20.2939 97.543 20.1299 97.7917 19.823C98.0404 19.5161 98.1621 19.1456 98.1621 18.7064V2.38133C98.1621 2.085 98.1039 1.81512 97.9822 1.57699C97.8658 1.33886 97.7018 1.14835 97.506 1.01077C97.3049 0.873182 97.0773 0.793806 96.8233 0.772639L96.5852 0.740888V0.418091H109.349V3.72015H109.143L108.936 3.27564C108.64 2.58242 108.158 2.00562 107.492 1.55053C106.825 1.09544 106.137 0.867891 105.422 0.867891H100.009V0.899641H99.0565C99.1147 0.899641 99.1888 0.915516 99.2787 0.941975C99.3687 0.973726 99.501 1.06369 99.6809 1.22244C99.8608 1.38119 99.9666 1.58757 100.009 1.84687V9.64163H104.443C104.719 9.64163 105.004 9.60459 105.29 9.5358C105.576 9.467 105.835 9.37175 106.063 9.25533C106.29 9.13362 106.497 8.99075 106.687 8.82141C106.878 8.65207 107.01 8.47744 107.089 8.30282L107.206 8.06469H107.444V11.933L107.148 11.9012L107.031 11.6631C106.83 11.208 106.486 10.8376 105.989 10.5465C105.491 10.2608 104.957 10.1126 104.38 10.1126H99.9455V10.1444H98.993C99.0141 10.1444 99.0406 10.1496 99.0829 10.1602C99.12 10.1708 99.194 10.1973 99.2893 10.2343C99.3898 10.2766 99.4798 10.3243 99.5592 10.3825C99.6385 10.4407 99.7179 10.5306 99.7973 10.6524C99.8767 10.7688 99.9243 10.9117 99.9455 11.0704V20.204H105.597C106.073 20.204 106.56 20.1034 107.052 19.9076C107.55 19.7119 108.015 19.4261 108.449 19.061C108.883 18.6958 109.254 18.2831 109.55 17.828L109.889 17.3729Z" fill="#AA9166"/>
<path d="M132.199 17.611C133.268 18.8599 133.929 19.5902 134.178 19.7965C134.427 20.0029 134.771 20.1088 135.205 20.1088V20.4951H134.522C133.591 20.4951 132.882 20.331 132.395 20.0029C131.908 19.6748 131.014 18.7699 129.701 17.283C126.351 13.3565 124.526 11.2133 124.229 10.8588H120.896H119.911C119.991 10.8588 120.081 10.8746 120.181 10.9011C120.282 10.9328 120.419 11.0387 120.599 11.2292C120.779 11.4197 120.874 11.6631 120.896 11.9594V18.5953C120.896 19.0345 121.017 19.405 121.266 19.7119C121.515 20.0188 121.838 20.1828 122.234 20.204L122.473 20.2358V20.5638H117.445V20.2358L117.684 20.204C118.08 20.1828 118.403 20.0188 118.652 19.7119C118.901 19.405 119.022 19.0345 119.022 18.5953V2.25964C119.022 1.82572 118.901 1.45 118.652 1.14308C118.403 0.836159 118.08 0.672114 117.684 0.650947L117.445 0.619197V0.354608L125.595 0.264648C127.42 0.264648 128.929 0.756782 130.13 1.73576C131.331 2.72003 131.929 3.96359 131.929 5.46645C131.929 6.73647 131.458 7.83187 130.516 8.75264C129.574 9.6734 128.331 10.282 126.785 10.5836C126.764 10.5836 126.743 10.5836 126.727 10.5836C126.648 10.6048 126.579 10.6259 126.521 10.6418C126.463 10.6418 126.404 10.6418 126.341 10.6418L125.298 10.7582C126.013 10.7794 126.695 11.1657 127.352 11.9171H127.383C128.431 13.1977 130.035 15.0922 132.199 17.611ZM125.029 10.3825C126.537 10.3825 127.727 9.92741 128.6 9.01193C129.474 8.10175 129.908 6.93227 129.908 5.50349C129.908 4.11705 129.495 2.96874 128.675 2.06914C127.849 1.16954 126.817 0.714448 125.563 0.714448H119.88C119.959 0.735615 120.049 0.756782 120.15 0.788533C120.25 0.820283 120.388 0.920827 120.568 1.10075C120.747 1.28067 120.843 1.50821 120.864 1.78338V10.3507L125.029 10.3825Z" fill="#AA9166"/>
<path d="M155.462 0.296387H159.208V0.624476L158.97 0.656227C158.573 0.677394 158.25 0.841438 158.002 1.14836C157.753 1.45528 157.631 1.82571 157.631 2.26492V20.9184H157.065C156.171 19.6907 151.583 13.3617 143.29 1.93683V18.6271C143.29 19.061 143.412 19.4367 143.661 19.7436C143.91 20.0505 144.232 20.2146 144.629 20.2357L144.867 20.2675V20.5956H141.121V20.2675L141.359 20.2357C141.756 20.2146 142.079 20.0505 142.327 19.7436C142.576 19.4367 142.698 19.0663 142.698 18.6271V2.29138C142.698 1.99504 142.64 1.72516 142.518 1.48703C142.401 1.2489 142.243 1.0584 142.042 0.920815C141.841 0.783229 141.613 0.703852 141.359 0.682685L141.121 0.650935L141.063 0.296387H144.306L157.038 17.8756V2.25963C157.038 1.82571 156.911 1.44999 156.652 1.14307C156.393 0.836147 156.075 0.672102 155.7 0.650935L155.462 0.619184V0.296387Z" fill="#AA9166"/>
<path d="M179.883 17.3729H180.063C180.021 17.6904 179.941 18.2196 179.809 18.9657C179.682 19.7119 179.597 20.2093 179.555 20.4686H179.523L179.491 20.675H166.579V20.3469L166.818 20.3151C167.214 20.2939 167.537 20.1299 167.786 19.823C168.035 19.5161 168.156 19.1456 168.156 18.7064V2.38133C168.156 2.085 168.098 1.81512 167.976 1.57699C167.86 1.33886 167.701 1.14835 167.5 1.01077C167.299 0.873182 167.072 0.793806 166.818 0.772639L166.579 0.740888V0.418091H179.343V3.72015H179.137L178.93 3.27564C178.634 2.58242 178.153 2.00562 177.486 1.55053C176.819 1.09544 176.131 0.867891 175.417 0.867891H170.003V0.899641H169.051C169.109 0.899641 169.183 0.915516 169.273 0.941975C169.363 0.973726 169.495 1.06369 169.675 1.22244C169.855 1.38119 169.961 1.58757 170.003 1.84687V9.64163H174.438C174.713 9.64163 174.999 9.60459 175.284 9.5358C175.57 9.467 175.829 9.37175 176.057 9.25533C176.285 9.13362 176.491 8.99075 176.681 8.82141C176.872 8.65207 177.004 8.47744 177.084 8.30282L177.205 8.06469H177.443V11.933L177.147 11.9012L177.031 11.6631C176.83 11.208 176.486 10.8376 175.988 10.5465C175.491 10.2608 174.956 10.1126 174.38 10.1126H169.945V10.1444H168.993C169.014 10.1444 169.04 10.1496 169.082 10.1602C169.12 10.1708 169.194 10.1973 169.289 10.2343C169.389 10.2766 169.479 10.3243 169.559 10.3825C169.638 10.4407 169.717 10.5306 169.797 10.6524C169.876 10.7688 169.924 10.9117 169.945 11.0704V20.204H175.597C176.073 20.204 176.56 20.1034 177.057 19.9076C177.555 19.7119 178.02 19.4261 178.454 19.061C178.888 18.6958 179.259 18.2831 179.555 17.828L179.883 17.3729Z" fill="#AA9166"/>
<path d="M195.467 9.75794C197.171 10.2554 198.579 11.028 199.674 12.0757C200.775 13.1288 201.325 14.2401 201.325 15.4095C201.325 16.9547 200.748 18.2353 199.6 19.2461C198.452 20.2568 197.002 20.7648 195.256 20.7648C193.927 20.7648 192.583 20.6219 191.223 20.3362C189.863 20.0504 188.8 19.6747 188.027 19.2196V16.0075H188.297C188.334 16.0657 188.397 16.198 188.477 16.3938C188.556 16.5949 188.614 16.7325 188.657 16.8119C188.995 17.5686 189.503 18.2353 190.191 18.8174C190.874 19.4048 191.583 19.7858 192.319 19.9605C193.451 20.1615 194.43 20.2568 195.266 20.2568C196.653 20.2568 197.801 19.8705 198.7 19.0979C199.605 18.3253 200.055 17.3305 200.055 16.1239C200.055 15.1714 199.489 14.2295 198.362 13.2981C197.229 12.3668 195.795 11.6524 194.049 11.155C192.403 10.6999 191.038 9.96961 189.958 8.96947C188.879 7.96933 188.339 6.92156 188.339 5.83145C188.339 4.20688 188.911 2.85748 190.048 1.78326C191.186 0.71432 192.631 0.174561 194.377 0.174561C195.308 0.174561 196.33 0.317438 197.441 0.608485C198.552 0.89424 199.484 1.26996 200.24 1.72505V4.93715L200.06 4.9689L199.166 3.06386C198.986 2.64581 198.716 2.26481 198.346 1.92084C197.981 1.57159 197.589 1.32287 197.171 1.16412C196.118 0.846614 195.176 0.687861 194.345 0.687861C192.975 0.687861 191.848 1.10591 190.953 1.93672C190.059 2.76752 189.615 3.84175 189.615 5.14882C189.615 6.02196 190.165 6.88981 191.266 7.75236C192.361 8.60963 193.763 9.28168 195.467 9.75794Z" fill="#AA9166"/>
<path d="M216.142 9.75794C217.846 10.2554 219.254 11.028 220.349 12.0757C221.45 13.1288 222 14.2401 222 15.4095C222 16.9547 221.423 18.2353 220.275 19.2461C219.127 20.2568 217.677 20.7648 215.93 20.7648C214.602 20.7648 213.258 20.6219 211.898 20.3362C210.538 20.0504 209.475 19.6747 208.702 19.2196V16.0075H208.972C209.009 16.0657 209.072 16.198 209.152 16.3938C209.231 16.5949 209.289 16.7325 209.332 16.8119C209.67 17.5686 210.178 18.2353 210.866 18.8174C211.549 19.4048 212.258 19.7858 212.994 19.9605C214.126 20.1615 215.105 20.2568 215.941 20.2568C217.327 20.2568 218.476 19.8705 219.375 19.0979C220.28 18.3253 220.73 17.3305 220.73 16.1239C220.73 15.1714 220.164 14.2295 219.037 13.2981C217.904 12.3668 216.47 11.6524 214.724 11.155C213.078 10.6999 211.713 9.96961 210.633 8.96947C209.554 7.96933 209.014 6.92156 209.014 5.83145C209.014 4.20688 209.586 2.85748 210.723 1.78326C211.861 0.71432 213.306 0.174561 215.052 0.174561C215.983 0.174561 217.005 0.317438 218.116 0.608485C219.227 0.89424 220.159 1.26996 220.91 1.72505V4.93715L220.73 4.9689L219.836 3.06386C219.656 2.64581 219.386 2.26481 219.016 1.92084C218.65 1.57159 218.259 1.32287 217.841 1.16412C216.788 0.846614 215.846 0.687861 215.015 0.687861C213.644 0.687861 212.517 1.10591 211.623 1.93672C210.729 2.76752 210.284 3.84175 210.284 5.14882C210.284 6.02196 210.834 6.88981 211.935 7.75236C213.036 8.60963 214.438 9.28168 216.142 9.75794Z" fill="#AA9166"/>
</svg>
