<svg width="299" height="56" viewBox="0 0 299 56" fill="none" xmlns="http://www.w3.org/2000/svg">
<path d="M94.3014 43.2737C96.3472 43.2737 98.194 44.1687 98.194 46.4702C98.194 47.5996 97.4979 48.5657 96.3614 48.9493C97.7892 49.3684 98.5421 50.5972 98.5421 51.7764C98.5421 54.1915 96.3969 54.9232 94.3014 54.9232C92.5682 54.9232 91.0694 54.9232 89.3433 54.9232V43.2737H94.3014ZM90.5082 48.4307H94.3866C95.786 48.4307 97.0362 47.8625 97.0362 46.4489C97.0362 44.8861 95.7363 44.3534 94.3085 44.3534H90.5153V48.4307H90.5082ZM90.5082 53.8222H94.3014C95.6297 53.8222 97.3772 53.4031 97.3772 51.7622C97.3629 50.1497 95.7789 49.4962 94.3795 49.4962C93.0654 49.4962 91.8365 49.4962 90.5011 49.4962V53.8222H90.5082Z" fill="#001815"/>
<path d="M117.096 49.1269C117.082 52.1742 115.15 55.1363 111.207 55.1363C107.244 55.1363 105.297 52.1742 105.297 49.1127C105.297 45.8309 107.428 43.0748 111.207 43.0748C115.15 43.089 117.11 46.0156 117.096 49.1269ZM111.2 54.0353C114.375 54.0353 115.91 51.6202 115.924 49.1269C115.924 46.5129 114.375 44.183 111.2 44.1687C108.075 44.1687 106.427 46.385 106.455 49.1269C106.491 51.677 108.025 54.0353 111.2 54.0353Z" fill="#001815"/>
<path d="M133.682 43.2737V50.377C133.682 53.5238 131.622 55.0368 129.086 55.0368C126.558 55.0368 124.427 53.5238 124.427 50.377V43.2737H125.591V50.377C125.591 52.5933 127.104 53.9571 129.086 53.9571C130.848 53.9571 132.517 52.8064 132.517 50.377V43.2737H133.682Z" fill="#001815"/>
<path d="M144.529 44.3676H140.416V43.2666C143.712 43.2666 146.504 43.2666 149.8 43.2666V44.3676H145.687V54.9161H144.522V44.3676H144.529Z" fill="#001815"/>
<path d="M156.676 54.9161V43.2666H157.841V54.9161H156.676Z" fill="#001815"/>
<path d="M177.126 49.0629C177.126 50.4623 176.693 51.89 175.826 52.9911L177.275 54.4046L176.48 55.2357L175.017 53.8008C174.086 54.568 172.786 55.051 171.223 55.051C167.21 55.051 165.285 52.1884 165.313 49.0132C165.328 45.9374 167.274 43.089 171.223 43.089C175.194 43.089 177.126 45.9303 177.126 49.0629ZM166.471 49.0274C166.457 51.5917 168.034 53.9571 171.216 53.9571C174.392 53.9571 175.976 51.5775 175.94 49.0487C175.926 46.3992 174.413 44.19 171.216 44.19C168.29 44.1829 166.457 46.3849 166.471 49.0274Z" fill="#001815"/>
<path d="M193.727 43.2737V50.377C193.727 53.5238 191.667 55.0368 189.131 55.0368C186.602 55.0368 184.471 53.5238 184.471 50.377V43.2737H185.636V50.377C185.636 52.5933 187.149 53.9571 189.131 53.9571C190.893 53.9571 192.562 52.8064 192.562 50.377V43.2737H193.727Z" fill="#001815"/>
<path d="M210.164 54.9161H201.811C201.811 51.0377 201.811 47.145 201.811 43.2666H210.015V44.3676H202.976V48.5444H209.695V49.6241H202.976V53.8151H210.164V54.9161Z" fill="#001815"/>
<path d="M32.7719 0.440408H38.5257V0.880816L38.206 0.923436C37.8863 0.923436 37.5667 1.01578 37.247 1.20047C36.5296 1.59826 36.0324 2.22335 35.7695 3.07575L30.3355 21.0472L29.1776 25.0038L28.1761 28.2785H27.5368L20.8312 8.50982L20.4689 7.47273L19.3608 4.19098L14.4098 21.2035L13.33 24.9541L12.3711 28.2714H11.7318L3.30721 3.43092L3.10831 2.79162C2.59687 1.67639 1.8155 1.03709 0.75 0.880816V0.440408H7.57633L7.65446 0.838196H7.49819L3.46348 0.880816C4.52899 1.03709 5.31035 1.67639 5.8218 2.79872L5.94255 3.19651L6.02069 3.43802L12.7689 24.5634L12.9678 23.8815L14.083 20.0883L19.9575 0H20.5542L21.712 3.35278L22.0317 4.35436L28.7372 24.3574L28.8154 23.9951L30.0158 20.0386L35.0095 3.06865C35.1942 2.45776 35.1445 1.94632 34.8532 1.53433C34.562 1.12233 34.1074 0.916333 33.4965 0.916333L32.779 0.873713V0.440408H32.7719Z" fill="#001815"/>
<path d="M55.8934 0.916355C55.3606 0.944768 54.9273 1.16497 54.5935 1.57697C54.2596 1.98896 54.0962 2.4862 54.0962 3.07577V24.9967C54.0962 25.5792 54.2596 26.0835 54.5935 26.4955C54.9273 26.9075 55.3606 27.1277 55.8934 27.1562L56.213 27.1988V27.6392H49.4648V27.1988L49.7845 27.1562C50.3172 27.1277 50.7506 26.9075 51.0844 26.4955C51.4183 26.0835 51.5816 25.5863 51.5816 24.9967V3.07577C51.5816 2.67799 51.5035 2.31572 51.3401 1.99606C51.1839 1.67641 50.9708 1.4278 50.7008 1.23601C50.4309 1.05132 50.1255 0.944768 49.7845 0.916355L49.4648 0.873734V0.44043H56.213V0.880838L55.8934 0.916355Z" fill="#001815"/>
<path d="M85.6847 22.8018C85.8978 22.8799 86.0469 22.951 86.1251 23.0007C85.9617 24.1443 85.7273 25.5934 85.4076 27.355L85.365 27.6321H67.9973V27.1917L68.317 27.149C68.8497 27.1206 69.283 26.9004 69.6169 26.4884C69.9507 26.0764 70.1141 25.5792 70.1141 24.9896V3.07577C70.1141 2.4933 69.9436 1.98896 69.6169 1.57697C69.283 1.16497 68.8497 0.944768 68.317 0.916355L67.9973 0.873734V0.44043H74.7455V0.880838L74.7029 0.923458L74.3832 0.966078C73.8789 0.994491 73.4527 1.2147 73.1046 1.62669C72.7566 2.03868 72.5861 2.53592 72.5861 3.1255V25.6076C72.5577 26.0054 72.4369 26.3251 72.2238 26.5666C72.0107 26.8081 71.7976 26.9502 71.5845 27.007L71.2649 27.0496H72.5861H80.5703C81.3942 27.0496 82.2182 26.7797 83.0493 26.2327C83.8733 25.6858 84.5126 24.9896 84.9672 24.1372L85.6847 22.8018Z" fill="#001815"/>
<path d="M105.972 0.397827C110.127 0.397827 113.537 1.68353 116.215 4.24785C118.893 6.81926 120.228 10.0726 120.228 14.0079C120.228 17.9502 119.049 21.2036 116.691 23.7679C114.332 26.3393 111.349 27.625 107.726 27.625H96.0271V27.1846L96.3467 27.142C96.8795 27.1136 97.3128 26.8933 97.6467 26.4814C97.9805 26.0694 98.1439 25.5721 98.1439 24.9825V3.07579C98.1439 2.49332 97.9734 1.98898 97.6467 1.57698C97.3128 1.16499 96.8795 0.944786 96.3467 0.916372L96.0271 0.873752V0.440447L105.972 0.397827ZM107.726 26.9147C110.624 26.9147 113.025 25.7 114.915 23.2635C116.804 20.8271 117.749 17.73 117.749 13.9794C117.749 10.2218 116.641 7.13181 114.432 4.69536C112.223 2.25891 109.403 1.04423 105.965 1.04423H99.3373C99.4438 1.04423 99.5646 1.06554 99.6995 1.10106C99.8345 1.13658 100.019 1.27864 100.261 1.52016C100.502 1.76167 100.63 2.08132 100.658 2.47911V26.9573L107.726 26.9147Z" fill="#001815"/>
<path d="M148.258 23.3203H148.5C148.443 23.7465 148.336 24.4568 148.159 25.4584C147.988 26.46 147.875 27.1277 147.818 27.4758H147.775L147.733 27.7528H130.401V27.3124L130.72 27.2698C131.253 27.2414 131.686 27.0212 132.02 26.6092C132.354 26.1972 132.517 25.6999 132.517 25.1104V3.1965C132.517 2.79871 132.439 2.43644 132.276 2.11679C132.12 1.79714 131.899 1.54142 131.636 1.35673C131.367 1.17205 131.061 1.0655 130.72 1.03708L130.401 0.994462V0.561157H147.534V4.99365H147.257L146.98 4.39697C146.582 3.46643 145.936 2.69216 145.041 2.08128C144.146 1.47039 143.222 1.16494 142.263 1.16494H134.996V1.20756H133.718C133.796 1.20756 133.895 1.22887 134.016 1.26439C134.137 1.30701 134.314 1.42777 134.556 1.64087C134.797 1.85397 134.94 2.131 134.996 2.47906V12.9423H140.949C141.318 12.9423 141.702 12.8926 142.086 12.8002C142.469 12.7079 142.817 12.58 143.123 12.4238C143.428 12.2604 143.705 12.0686 143.961 11.8413C144.217 11.614 144.394 11.3796 144.501 11.1452L144.657 10.8255H144.977V16.0181L144.579 15.9754L144.423 15.6558C144.153 15.0449 143.691 14.5477 143.023 14.157C142.355 13.7734 141.638 13.5745 140.864 13.5745H134.911V13.6171H133.633C133.661 13.6171 133.696 13.6242 133.753 13.6384C133.803 13.6526 133.902 13.6882 134.03 13.7379C134.165 13.7947 134.286 13.8586 134.393 13.9368C134.499 14.0149 134.606 14.1357 134.712 14.299C134.819 14.4553 134.883 14.6471 134.911 14.8602V27.1206H142.498C143.137 27.1206 143.79 26.9856 144.451 26.7228C145.119 26.46 145.744 26.0764 146.326 25.5863C146.909 25.0962 147.406 24.5421 147.804 23.9312L148.258 23.3203Z" fill="#001815"/>
<path d="M178.206 23.6399C179.641 25.3163 180.529 26.2966 180.863 26.5736C181.197 26.8506 181.658 26.9927 182.241 26.9927V27.5112H181.324C180.074 27.5112 179.122 27.291 178.469 26.8506C177.815 26.4102 176.615 25.1955 174.853 23.1995C170.357 17.9288 167.906 15.0519 167.508 14.576H163.033H161.712C161.819 14.576 161.939 14.5973 162.074 14.6328C162.209 14.6755 162.394 14.8175 162.635 15.0733C162.877 15.329 163.005 15.6557 163.033 16.0535V24.9611C163.033 25.5507 163.197 26.0479 163.53 26.4599C163.864 26.8719 164.298 27.0921 164.83 27.1205L165.15 27.1632V27.6036H158.402V27.1632L158.722 27.1205C159.254 27.0921 159.688 26.8719 160.021 26.4599C160.355 26.0479 160.519 25.5507 160.519 24.9611V3.03307C160.519 2.45059 160.355 1.94625 160.021 1.53426C159.688 1.12227 159.254 0.902061 158.722 0.873648L158.402 0.831027V0.47586L169.341 0.355103C171.792 0.355103 173.816 1.01571 175.429 2.32984C177.041 3.65106 177.844 5.32035 177.844 7.3377C177.844 9.04251 177.212 10.5129 175.947 11.7489C174.683 12.9849 173.013 13.8018 170.939 14.2066C170.911 14.2066 170.882 14.2066 170.861 14.2066C170.755 14.2351 170.662 14.2635 170.584 14.2848C170.506 14.2848 170.428 14.2848 170.343 14.2848L168.943 14.4411C169.902 14.4695 170.819 14.988 171.699 15.9967H171.742C173.148 17.7157 175.301 20.2587 178.206 23.6399ZM168.581 13.9367C170.605 13.9367 172.204 13.3258 173.376 12.097C174.548 10.8752 175.13 9.30533 175.13 7.38742C175.13 5.52635 174.576 3.98492 173.475 2.77735C172.367 1.56978 170.982 0.958888 169.298 0.958888H161.669C161.776 0.987301 161.897 1.01571 162.032 1.05833C162.167 1.10095 162.351 1.23592 162.593 1.47743C162.834 1.71895 162.962 2.02439 162.991 2.39377V13.8941L168.581 13.9367Z" fill="#001815"/>
<path d="M209.432 0.397827H214.462V0.838235L214.142 0.880855C213.609 0.909269 213.176 1.12947 212.842 1.54147C212.508 1.95346 212.345 2.4507 212.345 3.04028V28.0796H211.585C210.384 26.4316 204.226 17.936 193.095 2.59987V25.0039C193.095 25.5863 193.258 26.0907 193.592 26.5027C193.926 26.9147 194.359 27.1349 194.892 27.1633L195.212 27.2059V27.6463H190.182V27.2059L190.502 27.1633C191.035 27.1349 191.468 26.9147 191.802 26.5027C192.136 26.0907 192.299 25.5934 192.299 25.0039V3.07579C192.299 2.678 192.221 2.31573 192.058 1.99608C191.901 1.67643 191.688 1.42071 191.418 1.23602C191.148 1.05134 190.843 0.944786 190.502 0.916372L190.182 0.873752L190.104 0.397827H194.459L211.549 23.9952V3.03317C211.549 2.4507 211.379 1.94636 211.031 1.53436C210.683 1.12237 210.256 0.902165 209.752 0.873752L209.432 0.831132V0.397827Z" fill="#001815"/>
<path d="M242.214 23.3203H242.456C242.399 23.7465 242.292 24.4568 242.115 25.4584C241.944 26.46 241.831 27.1277 241.774 27.4758H241.731L241.689 27.7528H224.356V27.3124L224.676 27.2698C225.209 27.2414 225.642 27.0212 225.976 26.6092C226.31 26.1972 226.473 25.6999 226.473 25.1104V3.1965C226.473 2.79871 226.395 2.43644 226.232 2.11679C226.075 1.79714 225.862 1.54142 225.592 1.35673C225.322 1.17205 225.017 1.0655 224.676 1.03708L224.356 0.994462V0.561157H241.49V4.99365H241.213L240.936 4.39697C240.538 3.46643 239.891 2.69216 238.996 2.08128C238.101 1.47039 237.178 1.16494 236.219 1.16494H228.952V1.20756H227.674C227.752 1.20756 227.851 1.22887 227.972 1.26439C228.093 1.30701 228.27 1.42777 228.512 1.64087C228.753 1.85397 228.895 2.131 228.952 2.47906V12.9423H234.905C235.274 12.9423 235.658 12.8926 236.041 12.8002C236.425 12.7079 236.773 12.58 237.079 12.4238C237.384 12.2604 237.661 12.0686 237.917 11.8413C238.172 11.614 238.35 11.3796 238.457 11.1452L238.62 10.8255H238.94V16.0181L238.542 15.9754L238.386 15.6558C238.116 15.0449 237.654 14.5477 236.986 14.157C236.318 13.7734 235.601 13.5745 234.827 13.5745H228.874V13.6171H227.596C227.624 13.6171 227.659 13.6242 227.716 13.6384C227.766 13.6526 227.865 13.6882 227.993 13.7379C228.128 13.7947 228.249 13.8586 228.356 13.9368C228.462 14.0149 228.569 14.1357 228.675 14.299C228.782 14.4553 228.846 14.6471 228.874 14.8602V27.1206H236.461C237.1 27.1206 237.753 26.9856 238.421 26.7228C239.089 26.46 239.714 26.0764 240.296 25.5863C240.879 25.0962 241.376 24.5421 241.774 23.9312L242.214 23.3203Z" fill="#001815"/>
<path d="M263.134 13.0986C265.421 13.7663 267.311 14.8034 268.781 16.2098C270.258 17.6234 270.997 19.1151 270.997 20.6849C270.997 22.7591 270.223 24.4781 268.682 25.8349C267.14 27.1916 265.194 27.8735 262.85 27.8735C261.067 27.8735 259.262 27.6817 257.437 27.2982C255.611 26.9146 254.184 26.4102 253.146 25.7994V21.4876H253.509C253.558 21.5658 253.644 21.7433 253.75 22.0062C253.857 22.2761 253.935 22.4608 253.992 22.5673C254.446 23.5831 255.128 24.4781 256.052 25.2595C256.968 26.048 257.92 26.5594 258.907 26.7938C260.427 27.0638 261.742 27.1916 262.864 27.1916C264.725 27.1916 266.266 26.6731 267.474 25.636C268.689 24.5989 269.292 23.2635 269.292 21.6439C269.292 20.3653 268.532 19.1009 267.019 17.8507C265.499 16.6005 263.574 15.6416 261.23 14.9738C259.021 14.363 257.188 13.3827 255.739 12.0402C254.29 10.6976 253.566 9.29115 253.566 7.82786C253.566 5.64713 254.333 3.83578 255.86 2.3938C257.387 0.958917 259.326 0.234375 261.671 0.234375C262.921 0.234375 264.292 0.426166 265.783 0.81685C267.275 1.20043 268.525 1.70477 269.541 2.31566V6.6274L269.3 6.67002L268.099 4.11281C267.858 3.55164 267.495 3.0402 266.998 2.57848C266.508 2.10966 265.982 1.7758 265.421 1.5627C264.008 1.1365 262.743 0.9234 261.628 0.9234C259.788 0.9234 258.275 1.48457 257.075 2.59979C255.874 3.71502 255.277 5.157 255.277 6.91153C255.277 8.08358 256.016 9.24853 257.494 10.4064C258.964 11.5571 260.847 12.4593 263.134 13.0986Z" fill="#001815"/>
<path d="M290.887 13.0986C293.174 13.7663 295.063 14.8034 296.534 16.2098C298.011 17.6234 298.75 19.1151 298.75 20.6849C298.75 22.7591 297.976 24.4781 296.434 25.8349C294.893 27.1916 292.947 27.8735 290.602 27.8735C288.82 27.8735 287.015 27.6817 285.19 27.2982C283.364 26.9146 281.936 26.4102 280.899 25.7994V21.4876H281.262C281.311 21.5658 281.397 21.7433 281.503 22.0062C281.61 22.2761 281.688 22.4608 281.745 22.5673C282.199 23.5831 282.881 24.4781 283.805 25.2595C284.721 26.048 285.673 26.5594 286.66 26.7938C288.18 27.0638 289.494 27.1916 290.617 27.1916C292.478 27.1916 294.019 26.6731 295.227 25.636C296.441 24.5989 297.045 23.2635 297.045 21.6439C297.045 20.3653 296.285 19.1009 294.772 17.8507C293.252 16.6005 291.327 15.6416 288.983 14.9738C286.774 14.363 284.941 13.3827 283.492 12.0402C282.043 10.6976 281.318 9.29115 281.318 7.82786C281.318 5.64713 282.086 3.83578 283.613 2.3938C285.14 0.958917 287.079 0.234375 289.423 0.234375C290.674 0.234375 292.044 0.426166 293.536 0.81685C295.028 1.20043 296.278 1.70477 297.287 2.31566V6.6274L297.045 6.67002L295.845 4.11281C295.603 3.55164 295.241 3.0402 294.744 2.57848C294.254 2.10966 293.728 1.7758 293.167 1.5627C291.753 1.1365 290.489 0.9234 289.374 0.9234C287.534 0.9234 286.021 1.48457 284.82 2.59979C283.62 3.71502 283.023 5.157 283.023 6.91153C283.023 8.08358 283.762 9.24853 285.239 10.4064C286.717 11.5571 288.599 12.4593 290.887 13.0986Z" fill="#001815"/>
</svg>
